# xmcd
#
# Track frame offsets:
#	187
#	11317
#	24215
#	31832
#	42635
#	52452
#	62970
#	74802
#	84100
#	95455
#	105325
#	114897
#	124000
#	135672
#	144905
#	155950
#	165455
#	176405
#	185857
#	197777
#	209412
#	219465
#	232805
#	244355
#	256615
#
# Disc length: 3605 seconds
#
# Revision: 1
# Processed by: cddbd v1.5.2PL0 Copyright (c) Steve Scherf et al.
# Submitted via: EasyCDDAExtractor 16.1.0.1
#
DISCID=5f0e1319
DTITLE=Jim Reeves - The Unforgettable Jim Reeves (Disk 2of 3)
DYEAR=1900
DGENRE=Country
TTITLE0=Make the World Go Away
TTITLE1=I'd Fight the World
TTITLE2=Till the End of the World
TTITLE3=Waltzing on Top of the World
TTITLE4=When Two Worlds Collide
TTITLE5=The World You Left Behind
TTITLE6=Mona Lisa
TTITLE7=Sweet Sue - Just You
TTITLE8=Anna Marie
TTITLE9=Charmaine
TTITLE10=Ramona
TTITLE11=My Juanita
TTITLE12=You Belong to Me
TTITLE13=I Won't Forget You
TTITLE14=What I Feel in My Heart
TTITLE15=I'm Gonna Change Everything
TTITLE16=I Guess I'm Crazy for Loving You
TTITLE17=There's a Heartache Following Me
TTITLE18=Missing You
TTITLE19=An Evening Prayer
TTITLE20=The Farmer and the Lord
TTITLE21=My Cathedral
TTITLE22=Take My Hand, Precious Lord
TTITLE23=He Will
TTITLE24=Whispering Hope
EXTD=
EXTT0=
EXTT1=
EXTT2=
EXTT3=
EXTT4=
EXTT5=
EXTT6=
EXTT7=
EXTT8=
EXTT9=
EXTT10=
EXTT11=
EXTT12=
EXTT13=
EXTT14=
EXTT15=
EXTT16=
EXTT17=
EXTT18=
EXTT19=
EXTT20=
EXTT21=
EXTT22=
EXTT23=
EXTT24=
PLAYORDER=
